<svg width="18" height="17" viewBox="0 0 18 17" fill="none" xmlns="http://www.w3.org/2000/svg">
<path d="M5.84996 13.825L8.99996 11.925L12.15 13.85L11.325 10.25L14.1 7.85001L10.45 7.52501L8.99996 4.12501L7.54996 7.50001L3.89996 7.82501L6.67496 10.25L5.84996 13.825ZM8.99996 14.275L4.84996 16.775C4.66663 16.8917 4.47496 16.9417 4.27496 16.925C4.07496 16.9083 3.89996 16.8417 3.74996 16.725C3.59996 16.6083 3.4833 16.4627 3.39996 16.288C3.31663 16.1133 3.29996 15.9173 3.34996 15.7L4.44996 10.975L0.774963 7.80001C0.608296 7.65001 0.504296 7.47901 0.462963 7.28701C0.421629 7.09501 0.433963 6.90768 0.499963 6.72501C0.565963 6.54235 0.665963 6.39235 0.799963 6.27501C0.933963 6.15768 1.1173 6.08268 1.34996 6.05001L6.19996 5.62501L8.07496 1.17501C8.1583 0.975012 8.28763 0.825012 8.46296 0.725012C8.6383 0.625012 8.8173 0.575012 8.99996 0.575012C9.18263 0.575012 9.36163 0.625012 9.53696 0.725012C9.7123 0.825012 9.84163 0.975012 9.92496 1.17501L11.8 5.62501L16.65 6.05001C16.8833 6.08335 17.0666 6.15835 17.2 6.27501C17.3333 6.39168 17.4333 6.54168 17.5 6.72501C17.5666 6.90835 17.5793 7.09601 17.538 7.28801C17.4966 7.48001 17.3923 7.65068 17.225 7.80001L13.55 10.975L14.65 15.7C14.7 15.9167 14.6833 16.1127 14.6 16.288C14.5166 16.4633 14.4 16.609 14.25 16.725C14.1 16.841 13.925 16.9077 13.725 16.925C13.525 16.9423 13.3333 16.8923 13.15 16.775L8.99996 14.275Z" fill="white"/>
</svg>
