<svg width="16" height="15" viewBox="0 0 16 15" fill="none" xmlns="http://www.w3.org/2000/svg">
<path d="M8.07 12.0163L8 12.0872L7.923 12.0163C4.598 8.96294 2.4 6.94387 2.4 4.89646C2.4 3.47956 3.45 2.41689 4.85 2.41689C5.928 2.41689 6.978 3.12534 7.349 4.08883H8.651C9.022 3.12534 10.072 2.41689 11.15 2.41689C12.55 2.41689 13.6 3.47956 13.6 4.89646C13.6 6.94387 11.402 8.96294 8.07 12.0163ZM11.15 1C9.932 1 8.763 1.57384 8 2.47357C7.237 1.57384 6.068 1 4.85 1C2.694 1 1 2.70736 1 4.89646C1 7.5673 3.38 9.7564 6.985 13.0649L8 14L9.015 13.0649C12.62 9.7564 15 7.5673 15 4.89646C15 2.70736 13.306 1 11.15 1Z" fill="black" stroke="black"/>
</svg>
