<svg width="102" height="62" viewBox="0 0 102 62" fill="none" xmlns="http://www.w3.org/2000/svg">
<mask id="path-1-outside-1_12_23" maskUnits="userSpaceOnUse" x="0" y="30" width="102" height="23" fill="black">
<rect fill="white" y="30" width="102" height="23"/>
<path d="M9.73438 51.3301C8.45638 51.3301 7.16992 51.1777 5.875 50.873C4.58008 50.5684 3.46289 50.1536 2.52344 49.6289L3.81836 46.874C4.53776 47.2549 5.39681 47.6019 6.39551 47.915C7.40267 48.2197 8.486 48.3721 9.64551 48.3721C10.4157 48.3721 10.9954 48.262 11.3848 48.042C11.7826 47.8219 12.0492 47.5173 12.1846 47.1279C12.3285 46.7301 12.4004 46.2773 12.4004 45.7695C12.4004 45.4225 12.3411 45.1051 12.2227 44.8174C12.1042 44.5212 11.8587 44.2503 11.4863 44.0049C11.1224 43.751 10.5638 43.514 9.81055 43.2939L6.61133 42.3545C5.5957 42.0498 4.80436 41.6436 4.2373 41.1357C3.67871 40.6195 3.28516 40.0186 3.05664 39.333C2.83659 38.6475 2.72656 37.9069 2.72656 37.1113C2.72656 35.9434 3.01009 34.9785 3.57715 34.2168C4.15267 33.4551 4.93132 32.888 5.91309 32.5156C6.90332 32.1348 8.01204 31.9443 9.23926 31.9443C10.4749 31.9443 11.6133 32.0628 12.6543 32.2998C13.6953 32.5368 14.6475 32.9049 15.5107 33.4043L14.4443 36.0576C13.7503 35.7275 12.9928 35.4525 12.1719 35.2324C11.3509 35.0124 10.4834 34.9023 9.56934 34.9023C8.61296 34.9023 7.85124 35.0505 7.28418 35.3467C6.71712 35.6344 6.43359 36.1803 6.43359 36.9844C6.43359 37.6276 6.59863 38.1227 6.92871 38.4697C7.26725 38.8167 7.91048 39.1341 8.8584 39.4219L12.0449 40.374C13.306 40.7549 14.2539 41.36 14.8887 42.1895C15.5234 43.0189 15.8408 44.1699 15.8408 45.6426C15.8408 46.7005 15.6292 47.6611 15.2061 48.5244C14.7829 49.3792 14.1227 50.0605 13.2256 50.5684C12.3285 51.0762 11.1647 51.3301 9.73438 51.3301ZM22.9756 51V35.1309H17.7578V32.2617H31.9512V35.1309H26.7334V51H22.9756ZM34.8457 51V32.2617H42.9326C44.5915 32.2617 45.8737 32.4945 46.7793 32.96C47.6849 33.4255 48.3112 34.0771 48.6582 34.915C49.0137 35.7529 49.1914 36.7347 49.1914 37.8604C49.1914 38.6305 49.1195 39.3542 48.9756 40.0312C48.8402 40.6999 48.5736 41.2923 48.1758 41.8086C47.778 42.3249 47.1982 42.7396 46.4365 43.0527L50.0547 51H46.1445L42.8564 43.5986H38.6162V51H34.8457ZM38.6162 40.9072H43.25C43.8932 40.9072 44.3799 40.7803 44.71 40.5264C45.0485 40.264 45.277 39.917 45.3955 39.4854C45.5225 39.0452 45.5859 38.5586 45.5859 38.0254C45.5859 37.5176 45.5309 37.0267 45.4209 36.5527C45.3193 36.0788 45.112 35.6937 44.7988 35.3975C44.4941 35.0928 44.0286 34.9404 43.4023 34.9404H38.6162V40.9072ZM53.2793 48.1816H56.6943V35.0674H53.2793V32.2617H63.8418V35.0674H60.4521V48.1816H63.8418V51H53.2793V48.1816ZM68.2598 51V32.2617H76.3848C78.196 32.2617 79.6009 32.5537 80.5996 33.1377C81.5983 33.7132 82.2965 34.4961 82.6943 35.4863C83.0921 36.4681 83.291 37.5726 83.291 38.7998V44.5508C83.291 45.7949 83.0794 46.9036 82.6562 47.877C82.2415 48.8503 81.5348 49.6162 80.5361 50.1748C79.5374 50.7249 78.1579 51 76.3975 51H68.2598ZM72.0303 48.0674H76.0674C76.9561 48.0674 77.6501 47.9616 78.1494 47.75C78.6488 47.5299 79 47.1956 79.2031 46.7471C79.4147 46.2985 79.5205 45.7272 79.5205 45.0332V38.3047C79.5205 37.6276 79.4147 37.0605 79.2031 36.6035C78.9915 36.138 78.6318 35.7868 78.124 35.5498C77.6247 35.3128 76.9391 35.1943 76.0674 35.1943H72.0303V48.0674ZM87.7344 32.2617H100.011V35.1055H91.4922V40.082H99.0459V42.7988H91.4922V48.1562H100.15V51H87.7344V32.2617Z"/>
</mask>
<path d="M2.52344 49.6289L1.16593 48.9908L0.571001 50.2565L1.79197 50.9385L2.52344 49.6289ZM3.81836 46.874L4.52019 45.5483L3.12999 44.8124L2.46085 46.2359L3.81836 46.874ZM6.39551 47.915L5.94671 49.3463L5.95393 49.3486L5.96117 49.3508L6.39551 47.915ZM11.3848 48.042L10.6586 46.7294L10.6467 46.7361L11.3848 48.042ZM12.1846 47.1279L10.774 46.6177L10.7709 46.6264L10.7678 46.6351L12.1846 47.1279ZM12.2227 44.8174L10.8299 45.3745L10.8328 45.3815L10.8356 45.3885L12.2227 44.8174ZM11.4863 44.0049L10.6281 45.2351L10.6443 45.2464L10.6609 45.2573L11.4863 44.0049ZM9.81055 43.2939L9.38792 44.7332L9.38993 44.7338L9.81055 43.2939ZM6.61133 42.3545L6.1803 43.7913L6.1887 43.7937L6.61133 42.3545ZM4.2373 41.1357L3.21919 42.2373L3.22785 42.2453L3.23662 42.2532L4.2373 41.1357ZM3.05664 39.333L1.62841 39.7915L1.63097 39.7994L1.63362 39.8073L3.05664 39.333ZM3.57715 34.2168L2.38032 33.3125L2.37395 33.3211L3.57715 34.2168ZM5.91309 32.5156L6.44507 33.9181L6.45155 33.9156L5.91309 32.5156ZM15.5107 33.4043L16.9025 33.9637L17.3875 32.757L16.2618 32.1059L15.5107 33.4043ZM14.4443 36.0576L13.8001 37.4122L15.2411 38.0976L15.8361 36.617L14.4443 36.0576ZM7.28418 35.3467L7.96297 36.6843L7.97086 36.6803L7.97871 36.6762L7.28418 35.3467ZM6.92871 38.4697L5.84187 39.5035L5.84841 39.5104L5.85504 39.5172L6.92871 38.4697ZM8.8584 39.4219L8.42267 40.8572L8.42895 40.8591L8.8584 39.4219ZM12.0449 40.374L12.4786 38.9381L12.4744 38.9368L12.0449 40.374ZM15.2061 48.5244L16.5504 49.1899L16.5529 49.1846L15.2061 48.5244ZM13.2256 50.5684L12.4867 49.263L13.2256 50.5684ZM9.73438 51.3301V49.8301C8.57669 49.8301 7.40549 49.6922 6.21856 49.4129L5.875 50.873L5.53144 52.3332C6.93436 52.6633 8.33607 52.8301 9.73438 52.8301V51.3301ZM5.875 50.873L6.21856 49.4129C5.02869 49.133 4.04797 48.7623 3.25491 48.3193L2.52344 49.6289L1.79197 50.9385C2.87781 51.545 4.13147 52.0038 5.53144 52.3332L5.875 50.873ZM2.52344 49.6289L3.88095 50.267L5.17587 47.5121L3.81836 46.874L2.46085 46.2359L1.16593 48.9908L2.52344 49.6289ZM3.81836 46.874L3.11653 48.1997C3.93597 48.6335 4.88399 49.0131 5.94671 49.3463L6.39551 47.915L6.8443 46.4838C5.90963 46.1907 5.13955 45.8762 4.52019 45.5483L3.81836 46.874ZM6.39551 47.915L5.96117 49.3508C7.12272 49.7022 8.35371 49.8721 9.64551 49.8721V48.3721V46.8721C8.61829 46.8721 7.68262 46.7373 6.82985 46.4793L6.39551 47.915ZM9.64551 48.3721V49.8721C10.5113 49.8721 11.3996 49.7566 12.1229 49.3478L11.3848 48.042L10.6467 46.7361C10.5913 46.7675 10.3201 46.8721 9.64551 46.8721V48.3721ZM11.3848 48.042L12.1109 49.3545C12.7961 48.9755 13.3317 48.3959 13.6013 47.6207L12.1846 47.1279L10.7678 46.6351C10.7622 46.6512 10.7583 46.656 10.7542 46.6607C10.7485 46.6672 10.724 46.6933 10.6587 46.7294L11.3848 48.042ZM12.1846 47.1279L13.5951 47.6381C13.8087 47.0477 13.9004 46.4174 13.9004 45.7695H12.4004H10.9004C10.9004 46.1373 10.8482 46.4126 10.774 46.6177L12.1846 47.1279ZM12.4004 45.7695H13.9004C13.9004 45.2491 13.8109 44.7349 13.6097 44.2463L12.2227 44.8174L10.8356 45.3885C10.8714 45.4754 10.9004 45.5959 10.9004 45.7695H12.4004ZM12.2227 44.8174L13.6154 44.2603C13.3461 43.5871 12.8413 43.1015 12.3118 42.7524L11.4863 44.0049L10.6609 45.2573C10.764 45.3253 10.8163 45.3752 10.8382 45.3994C10.8584 45.4216 10.8458 45.4142 10.8299 45.3745L12.2227 44.8174ZM11.4863 44.0049L12.3446 42.7747C11.7821 42.3822 11.04 42.0904 10.2312 41.8541L9.81055 43.2939L9.38993 44.7338C10.0876 44.9376 10.4627 45.1197 10.6281 45.2351L11.4863 44.0049ZM9.81055 43.2939L10.2332 41.8547L7.03396 40.9153L6.61133 42.3545L6.1887 43.7937L9.38792 44.7332L9.81055 43.2939ZM6.61133 42.3545L7.04235 40.9178C6.16002 40.6531 5.58962 40.3332 5.23798 40.0183L4.2373 41.1357L3.23662 42.2532C4.0191 42.9539 5.03139 43.4466 6.18031 43.7912L6.61133 42.3545ZM4.2373 41.1357L5.25542 40.0342C4.87239 39.6802 4.62398 39.2916 4.47967 38.8587L3.05664 39.333L1.63362 39.8073C1.94633 40.7455 2.48503 41.5588 3.21919 42.2373L4.2373 41.1357ZM3.05664 39.333L4.48487 38.8746C4.31708 38.3519 4.22656 37.7675 4.22656 37.1113H2.72656H1.22656C1.22656 38.0463 1.35609 38.9431 1.62841 39.7915L3.05664 39.333ZM2.72656 37.1113H4.22656C4.22656 36.1904 4.44675 35.5606 4.78035 35.1125L3.57715 34.2168L2.37395 33.3211C1.57343 34.3964 1.22656 35.6963 1.22656 37.1113H2.72656ZM3.57715 34.2168L4.77395 35.121C5.16241 34.6069 5.70009 34.2007 6.44507 33.9181L5.91309 32.5156L5.3811 31.1131C4.16254 31.5753 3.14293 32.3032 2.38035 33.3125L3.57715 34.2168ZM5.91309 32.5156L6.45155 33.9156C7.24527 33.6104 8.16771 33.4443 9.23926 33.4443V31.9443V30.4443C7.85638 30.4443 6.56137 30.6592 5.37462 31.1156L5.91309 32.5156ZM9.23926 31.9443V33.4443C10.38 33.4443 11.4051 33.5538 12.3214 33.7624L12.6543 32.2998L12.9872 30.8372C11.8215 30.5718 10.5699 30.4443 9.23926 30.4443V31.9443ZM12.6543 32.2998L12.3214 33.7624C13.2259 33.9683 14.0356 34.2839 14.7597 34.7027L15.5107 33.4043L16.2618 32.1059C15.2593 31.526 14.1647 31.1053 12.9872 30.8372L12.6543 32.2998ZM15.5107 33.4043L14.1189 32.8449L13.0525 35.4982L14.4443 36.0576L15.8361 36.617L16.9025 33.9637L15.5107 33.4043ZM14.4443 36.0576L15.0886 34.703C14.3042 34.33 13.46 34.0248 12.5602 33.7836L12.1719 35.2324L11.7835 36.6813C12.5256 36.8802 13.1965 37.1251 13.8001 37.4122L14.4443 36.0576ZM12.1719 35.2324L12.5602 33.7836C11.6034 33.5271 10.6047 33.4023 9.56934 33.4023V34.9023V36.4023C10.3621 36.4023 11.0984 36.4976 11.7835 36.6813L12.1719 35.2324ZM9.56934 34.9023V33.4023C8.48117 33.4023 7.45106 33.5672 6.58965 34.0172L7.28418 35.3467L7.97871 36.6762C8.25142 36.5337 8.74475 36.4023 9.56934 36.4023V34.9023ZM7.28418 35.3467L6.60539 34.0091C5.39362 34.624 4.93359 35.793 4.93359 36.9844H6.43359H7.93359C7.93359 36.7517 7.97534 36.6673 7.9774 36.6633C7.97765 36.6628 7.97261 36.6718 7.962 36.6822C7.95174 36.6922 7.94853 36.6916 7.96297 36.6843L7.28418 35.3467ZM6.43359 36.9844H4.93359C4.93359 37.8774 5.16618 38.7932 5.84187 39.5035L6.92871 38.4697L8.01555 37.4359C8.01551 37.4359 7.99962 37.4214 7.9804 37.3638C7.95912 37.3 7.93359 37.1808 7.93359 36.9844H6.43359ZM6.92871 38.4697L5.85504 39.5172C6.47504 40.1527 7.43588 40.5576 8.42268 40.8572L8.8584 39.4219L9.29412 37.9866C8.87128 37.8582 8.55524 37.7346 8.32877 37.6229C8.21698 37.5677 8.13629 37.52 8.08043 37.4821C8.05295 37.4636 8.03337 37.4486 8.02029 37.4379C8.00718 37.4272 8.0019 37.4217 8.00238 37.4222L6.92871 38.4697ZM8.8584 39.4219L8.42895 40.8591L11.6155 41.8112L12.0449 40.374L12.4744 38.9368L9.28784 37.9847L8.8584 39.4219ZM12.0449 40.374L11.6112 41.81C12.6503 42.1238 13.2988 42.5801 13.6975 43.1011L14.8887 42.1895L16.0799 41.2778C15.209 40.1399 13.9616 39.386 12.4786 38.9381L12.0449 40.374ZM14.8887 42.1895L13.6975 43.1011C14.0644 43.5805 14.3408 44.3677 14.3408 45.6426H15.8408H17.3408C17.3408 43.9722 16.9825 42.4572 16.0799 41.2778L14.8887 42.1895ZM15.8408 45.6426H14.3408C14.3408 46.4949 14.1718 47.2264 13.8592 47.8642L15.2061 48.5244L16.5529 49.1846C17.0866 48.0959 17.3408 46.9061 17.3408 45.6426H15.8408ZM15.2061 48.5244L13.8618 47.8589C13.5826 48.4227 13.1447 48.8905 12.4867 49.263L13.2256 50.5684L13.9645 51.8737C15.1008 51.2306 15.9831 50.3357 16.5503 49.1899L15.2061 48.5244ZM13.2256 50.5684L12.4867 49.263C11.8856 49.6032 11.0012 49.8301 9.73438 49.8301V51.3301V52.8301C11.3282 52.8301 12.7713 52.5491 13.9645 51.8737L13.2256 50.5684ZM22.9756 51H21.4756V52.5H22.9756V51ZM22.9756 35.1309H24.4756V33.6309H22.9756V35.1309ZM17.7578 35.1309H16.2578V36.6309H17.7578V35.1309ZM17.7578 32.2617V30.7617H16.2578V32.2617H17.7578ZM31.9512 32.2617H33.4512V30.7617H31.9512V32.2617ZM31.9512 35.1309V36.6309H33.4512V35.1309H31.9512ZM26.7334 35.1309V33.6309H25.2334V35.1309H26.7334ZM26.7334 51V52.5H28.2334V51H26.7334ZM22.9756 51H24.4756V35.1309H22.9756H21.4756V51H22.9756ZM22.9756 35.1309V33.6309H17.7578V35.1309V36.6309H22.9756V35.1309ZM17.7578 35.1309H19.2578V32.2617H17.7578H16.2578V35.1309H17.7578ZM17.7578 32.2617V33.7617H31.9512V32.2617V30.7617H17.7578V32.2617ZM31.9512 32.2617H30.4512V35.1309H31.9512H33.4512V32.2617H31.9512ZM31.9512 35.1309V33.6309H26.7334V35.1309V36.6309H31.9512V35.1309ZM26.7334 35.1309H25.2334V51H26.7334H28.2334V35.1309H26.7334ZM26.7334 51V49.5H22.9756V51V52.5H26.7334V51ZM34.8457 51H33.3457V52.5H34.8457V51ZM34.8457 32.2617V30.7617H33.3457V32.2617H34.8457ZM48.6582 34.915L47.2723 35.489L47.2773 35.5009L48.6582 34.915ZM48.9756 40.0312L47.5083 39.7195L47.5069 39.7265L47.5054 39.7335L48.9756 40.0312ZM46.4365 43.0527L45.8662 41.6654L44.4263 42.2574L45.0713 43.6743L46.4365 43.0527ZM50.0547 51V52.5H52.3857L51.4199 50.3785L50.0547 51ZM46.1445 51L44.7737 51.609L45.1696 52.5H46.1445V51ZM42.8564 43.5986L44.2273 42.9896L43.8314 42.0986H42.8564V43.5986ZM38.6162 43.5986V42.0986H37.1162V43.5986H38.6162ZM38.6162 51V52.5H40.1162V51H38.6162ZM38.6162 40.9072H37.1162V42.4072H38.6162V40.9072ZM44.71 40.5264L45.6245 41.7153L45.6288 41.712L44.71 40.5264ZM45.3955 39.4854L43.9543 39.0696L43.9516 39.0789L43.949 39.0883L45.3955 39.4854ZM45.4209 36.5527L43.9542 36.867L43.9569 36.8795L43.9598 36.8919L45.4209 36.5527ZM44.7988 35.3975L43.7382 36.4581L43.7529 36.4728L43.768 36.4872L44.7988 35.3975ZM38.6162 34.9404V33.4404H37.1162V34.9404H38.6162ZM34.8457 51H36.3457V32.2617H34.8457H33.3457V51H34.8457ZM34.8457 32.2617V33.7617H42.9326V32.2617V30.7617H34.8457V32.2617ZM42.9326 32.2617V33.7617C44.4861 33.7617 45.4932 33.9855 46.0936 34.294L46.7793 32.96L47.465 31.6259C46.2542 31.0035 44.6968 30.7617 42.9326 30.7617V32.2617ZM46.7793 32.96L46.0936 34.294C46.7245 34.6183 47.0781 35.0199 47.2723 35.489L48.6582 34.915L50.0441 34.3411C49.5443 33.1344 48.6453 32.2326 47.465 31.6259L46.7793 32.96ZM48.6582 34.915L47.2773 35.5009C47.5379 36.1152 47.6914 36.8897 47.6914 37.8604H49.1914H50.6914C50.6914 36.5797 50.4894 35.3907 50.0391 34.3292L48.6582 34.915ZM49.1914 37.8604H47.6914C47.6914 38.5373 47.6282 39.1556 47.5083 39.7195L48.9756 40.0312L50.4428 40.343C50.6108 39.5527 50.6914 38.7238 50.6914 37.8604H49.1914ZM48.9756 40.0312L47.5054 39.7335C47.4134 40.1882 47.2388 40.567 46.9876 40.8931L48.1758 41.8086L49.364 42.7241C49.9083 42.0176 50.267 41.2116 50.4457 40.329L48.9756 40.0312ZM48.1758 41.8086L46.9876 40.8931C46.7879 41.1523 46.4474 41.4265 45.8662 41.6654L46.4365 43.0527L47.0069 44.4401C47.9491 44.0527 48.7681 43.4975 49.364 42.7241L48.1758 41.8086ZM46.4365 43.0527L45.0713 43.6743L48.6895 51.6215L50.0547 51L51.4199 50.3785L47.8017 42.4312L46.4365 43.0527ZM50.0547 51V49.5H46.1445V51V52.5H50.0547V51ZM46.1445 51L47.5153 50.391L44.2273 42.9896L42.8564 43.5986L41.4856 44.2076L44.7737 51.609L46.1445 51ZM42.8564 43.5986V42.0986H38.6162V43.5986V45.0986H42.8564V43.5986ZM38.6162 43.5986H37.1162V51H38.6162H40.1162V43.5986H38.6162ZM38.6162 51V49.5H34.8457V51V52.5H38.6162V51ZM38.6162 40.9072V42.4072H43.25V40.9072V39.4072H38.6162V40.9072ZM43.25 40.9072V42.4072C44.0543 42.4072 44.9237 42.2544 45.6245 41.7153L44.71 40.5264L43.7954 39.3374C43.8191 39.3192 43.8072 39.3375 43.7188 39.3606C43.6278 39.3843 43.4774 39.4072 43.25 39.4072V40.9072ZM44.71 40.5264L45.6288 41.712C46.236 41.2414 46.6417 40.612 46.842 39.8824L45.3955 39.4854L43.949 39.0883C43.9123 39.222 43.861 39.2866 43.7911 39.3407L44.71 40.5264ZM45.3955 39.4854L46.8367 39.9011C47.0085 39.3058 47.0859 38.6768 47.0859 38.0254H45.5859H44.0859C44.0859 38.4404 44.0365 38.7847 43.9543 39.0696L45.3955 39.4854ZM45.5859 38.0254H47.0859C47.0859 37.4084 47.019 36.8035 46.882 36.2135L45.4209 36.5527L43.9598 36.8919C44.0429 37.2499 44.0859 37.6268 44.0859 38.0254H45.5859ZM45.4209 36.5527L46.8876 36.2384C46.7307 35.5062 46.39 34.8378 45.8296 34.3078L44.7988 35.3975L43.768 36.4872C43.834 36.5495 43.908 36.6513 43.9542 36.867L45.4209 36.5527ZM44.7988 35.3975L45.8595 34.3368C45.1674 33.6447 44.246 33.4404 43.4023 33.4404V34.9404V36.4404C43.5989 36.4404 43.7077 36.4649 43.7546 36.4803C43.7943 36.4933 43.774 36.4939 43.7382 36.4581L44.7988 35.3975ZM43.4023 34.9404V33.4404H38.6162V34.9404V36.4404H43.4023V34.9404ZM38.6162 34.9404H37.1162V40.9072H38.6162H40.1162V34.9404H38.6162ZM53.2793 48.1816V46.6816H51.7793V48.1816H53.2793ZM56.6943 48.1816V49.6816H58.1943V48.1816H56.6943ZM56.6943 35.0674H58.1943V33.5674H56.6943V35.0674ZM53.2793 35.0674H51.7793V36.5674H53.2793V35.0674ZM53.2793 32.2617V30.7617H51.7793V32.2617H53.2793ZM63.8418 32.2617H65.3418V30.7617H63.8418V32.2617ZM63.8418 35.0674V36.5674H65.3418V35.0674H63.8418ZM60.4521 35.0674V33.5674H58.9521V35.0674H60.4521ZM60.4521 48.1816H58.9521V49.6816H60.4521V48.1816ZM63.8418 48.1816H65.3418V46.6816H63.8418V48.1816ZM63.8418 51V52.5H65.3418V51H63.8418ZM53.2793 51H51.7793V52.5H53.2793V51ZM53.2793 48.1816V49.6816H56.6943V48.1816V46.6816H53.2793V48.1816ZM56.6943 48.1816H58.1943V35.0674H56.6943H55.1943V48.1816H56.6943ZM56.6943 35.0674V33.5674H53.2793V35.0674V36.5674H56.6943V35.0674ZM53.2793 35.0674H54.7793V32.2617H53.2793H51.7793V35.0674H53.2793ZM53.2793 32.2617V33.7617H63.8418V32.2617V30.7617H53.2793V32.2617ZM63.8418 32.2617H62.3418V35.0674H63.8418H65.3418V32.2617H63.8418ZM63.8418 35.0674V33.5674H60.4521V35.0674V36.5674H63.8418V35.0674ZM60.4521 35.0674H58.9521V48.1816H60.4521H61.9521V35.0674H60.4521ZM60.4521 48.1816V49.6816H63.8418V48.1816V46.6816H60.4521V48.1816ZM63.8418 48.1816H62.3418V51H63.8418H65.3418V48.1816H63.8418ZM63.8418 51V49.5H53.2793V51V52.5H63.8418V51ZM53.2793 51H54.7793V48.1816H53.2793H51.7793V51H53.2793ZM68.2598 51H66.7598V52.5H68.2598V51ZM68.2598 32.2617V30.7617H66.7598V32.2617H68.2598ZM80.5996 33.1377L79.8424 34.4326L79.8507 34.4373L80.5996 33.1377ZM82.6943 35.4863L81.3024 36.0455L81.3041 36.0496L82.6943 35.4863ZM82.6562 47.877L81.2806 47.2788L81.2763 47.289L82.6562 47.877ZM80.5361 50.1748L81.2599 51.4887L81.2684 51.4839L80.5361 50.1748ZM72.0303 48.0674H70.5303V49.5674H72.0303V48.0674ZM78.1494 47.75L78.7346 49.1311L78.7445 49.1269L78.7543 49.1226L78.1494 47.75ZM79.2031 46.7471L77.8465 46.1071L77.8415 46.1177L77.8367 46.1283L79.2031 46.7471ZM79.2031 36.6035L77.8375 37.2242L77.8419 37.2337L79.2031 36.6035ZM78.124 35.5498L77.4809 36.905L77.4897 36.9091L78.124 35.5498ZM72.0303 35.1943V33.6943H70.5303V35.1943H72.0303ZM68.2598 51H69.7598V32.2617H68.2598H66.7598V51H68.2598ZM68.2598 32.2617V33.7617H76.3848V32.2617V30.7617H68.2598V32.2617ZM76.3848 32.2617V33.7617C78.067 33.7617 79.1684 34.0384 79.8424 34.4326L80.5996 33.1377L81.3568 31.8428C80.0335 31.069 78.325 30.7617 76.3848 30.7617V32.2617ZM80.5996 33.1377L79.8507 34.4373C80.583 34.8594 81.0403 35.3928 81.3024 36.0455L82.6943 35.4863L84.0862 34.9272C83.5528 33.5994 82.6136 32.567 81.3486 31.8381L80.5996 33.1377ZM82.6943 35.4863L81.3041 36.0496C81.6188 36.8264 81.791 37.7354 81.791 38.7998H83.291H84.791C84.791 37.4097 84.5654 36.1098 84.0846 34.923L82.6943 35.4863ZM83.291 38.7998H81.791V44.5508H83.291H84.791V38.7998H83.291ZM83.291 44.5508H81.791C81.791 45.6242 81.6089 46.5239 81.2806 47.2789L82.6562 47.877L84.0319 48.475C84.55 47.2833 84.791 45.9657 84.791 44.5508H83.291ZM82.6562 47.877L81.2763 47.289C81.0026 47.9313 80.538 48.4551 79.8039 48.8657L80.5361 50.1748L81.2684 51.4839C82.5317 50.7773 83.4805 49.7692 84.0362 48.4649L82.6562 47.877ZM80.5361 50.1748L79.8124 48.861C79.1241 49.2401 78.0303 49.5 76.3975 49.5V51V52.5C78.2854 52.5 79.9508 52.2098 81.2599 51.4887L80.5361 50.1748ZM76.3975 51V49.5H68.2598V51V52.5H76.3975V51ZM72.0303 48.0674V49.5674H76.0674V48.0674V46.5674H72.0303V48.0674ZM76.0674 48.0674V49.5674C77.0448 49.5674 77.969 49.4555 78.7346 49.1311L78.1494 47.75L77.5642 46.3689C77.3311 46.4676 76.8673 46.5674 76.0674 46.5674V48.0674ZM78.1494 47.75L78.7543 49.1226C79.5522 48.771 80.1972 48.1882 80.5696 47.3658L79.2031 46.7471L77.8367 46.1283C77.8028 46.2031 77.7453 46.2889 77.5445 46.3774L78.1494 47.75ZM79.2031 46.7471L80.5598 47.387C80.8956 46.675 81.0205 45.8658 81.0205 45.0332H79.5205H78.0205C78.0205 45.5887 77.9338 45.922 77.8465 46.1071L79.2031 46.7471ZM79.5205 45.0332H81.0205V38.3047H79.5205H78.0205V45.0332H79.5205ZM79.5205 38.3047H81.0205C81.0205 37.4811 80.8931 36.6836 80.5643 35.9733L79.2031 36.6035L77.8419 37.2337C77.9363 37.4375 78.0205 37.7742 78.0205 38.3047H79.5205ZM79.2031 36.6035L80.5687 35.9828C80.1946 35.1598 79.5567 34.5631 78.7584 34.1905L78.124 35.5498L77.4897 36.9091C77.7069 37.0105 77.7885 37.1162 77.8376 37.2242L79.2031 36.6035ZM78.124 35.5498L78.7671 34.1947C77.9839 33.823 77.0467 33.6943 76.0674 33.6943V35.1943V36.6943C76.8315 36.6943 77.2654 36.8027 77.4809 36.9049L78.124 35.5498ZM76.0674 35.1943V33.6943H72.0303V35.1943V36.6943H76.0674V35.1943ZM72.0303 35.1943H70.5303V48.0674H72.0303H73.5303V35.1943H72.0303ZM87.7344 32.2617V30.7617H86.2344V32.2617H87.7344ZM100.011 32.2617H101.511V30.7617H100.011V32.2617ZM100.011 35.1055V36.6055H101.511V35.1055H100.011ZM91.4922 35.1055V33.6055H89.9922V35.1055H91.4922ZM91.4922 40.082H89.9922V41.582H91.4922V40.082ZM99.0459 40.082H100.546V38.582H99.0459V40.082ZM99.0459 42.7988V44.2988H100.546V42.7988H99.0459ZM91.4922 42.7988V41.2988H89.9922V42.7988H91.4922ZM91.4922 48.1562H89.9922V49.6562H91.4922V48.1562ZM100.15 48.1562H101.65V46.6562H100.15V48.1562ZM100.15 51V52.5H101.65V51H100.15ZM87.7344 51H86.2344V52.5H87.7344V51ZM87.7344 32.2617V33.7617H100.011V32.2617V30.7617H87.7344V32.2617ZM100.011 32.2617H98.5107V35.1055H100.011H101.511V32.2617H100.011ZM100.011 35.1055V33.6055H91.4922V35.1055V36.6055H100.011V35.1055ZM91.4922 35.1055H89.9922V40.082H91.4922H92.9922V35.1055H91.4922ZM91.4922 40.082V41.582H99.0459V40.082V38.582H91.4922V40.082ZM99.0459 40.082H97.5459V42.7988H99.0459H100.546V40.082H99.0459ZM99.0459 42.7988V41.2988H91.4922V42.7988V44.2988H99.0459V42.7988ZM91.4922 42.7988H89.9922V48.1562H91.4922H92.9922V42.7988H91.4922ZM91.4922 48.1562V49.6562H100.15V48.1562V46.6562H91.4922V48.1562ZM100.15 48.1562H98.6504V51H100.15H101.65V48.1562H100.15ZM100.15 51V49.5H87.7344V51V52.5H100.15V51ZM87.7344 51H89.2344V32.2617H87.7344H86.2344V51H87.7344Z" fill="#B0B0B0" mask="url(#path-1-outside-1_12_23)"/>
<path d="M11.4062 34.3555C10.0299 34.3555 8.64453 34.1914 7.25 33.8633C5.85547 33.5352 4.65234 33.0885 3.64062 32.5234L5.03516 29.5566C5.8099 29.9668 6.73503 30.3405 7.81055 30.6777C8.89518 31.0059 10.0618 31.1699 11.3105 31.1699C12.14 31.1699 12.7643 31.0514 13.1836 30.8145C13.612 30.5775 13.8991 30.2493 14.0449 29.8301C14.1999 29.4017 14.2773 28.9141 14.2773 28.3672C14.2773 27.9935 14.2135 27.6517 14.0859 27.3418C13.9583 27.0228 13.694 26.7311 13.293 26.4668C12.901 26.1934 12.2995 25.9382 11.4883 25.7012L8.04297 24.6895C6.94922 24.3613 6.09701 23.9238 5.48633 23.377C4.88477 22.821 4.46094 22.1738 4.21484 21.4355C3.97786 20.6973 3.85938 19.8997 3.85938 19.043C3.85938 17.7852 4.16471 16.7461 4.77539 15.9258C5.39518 15.1055 6.23372 14.4948 7.29102 14.0938C8.35742 13.6836 9.55143 13.4785 10.873 13.4785C12.2038 13.4785 13.4297 13.6061 14.5508 13.8613C15.6719 14.1165 16.6973 14.513 17.627 15.0508L16.4785 17.9082C15.7311 17.5527 14.9154 17.2565 14.0312 17.0195C13.1471 16.7826 12.2129 16.6641 11.2285 16.6641C10.1986 16.6641 9.37826 16.8236 8.76758 17.1426C8.1569 17.4525 7.85156 18.0404 7.85156 18.9062C7.85156 19.599 8.0293 20.1322 8.38477 20.5059C8.74935 20.8796 9.44206 21.2214 10.4629 21.5312L13.8945 22.5566C15.2526 22.9668 16.2734 23.6185 16.957 24.5117C17.6406 25.4049 17.9824 26.6445 17.9824 28.2305C17.9824 29.3698 17.7546 30.4043 17.2988 31.334C16.8431 32.2546 16.1322 32.9883 15.166 33.5352C14.1999 34.082 12.9466 34.3555 11.4062 34.3555ZM22.125 13.8203H25.1738L36.0293 28.1484L35.6602 28.2715V13.8203H39.2695V34H36.2207L25.4062 19.8906L25.7754 19.7676V34H22.125V13.8203ZM44.4648 13.8203H57.6855V16.8828H48.5117V22.2422H56.6465V25.168H48.5117V30.9375H57.8359V34H44.4648V13.8203ZM60.5156 34L67.1602 13.8203H72.5469L79.2734 34H74.9668L69.7715 16.2539H70.127L64.7539 34H60.5156ZM64.3574 30.1582L65.1641 27.0137H74.6523L75.4316 30.1582H64.3574ZM90.8809 24.2246H89.8828L86.8887 27.957V34H82.8281V13.8203H86.8887V23.6094L94.7363 13.8203H99.2207L90.8809 24.2246ZM88.6523 24.4844L91.5098 22.1191L99.7266 34H95.1465L88.6523 24.4844Z" fill="white"/>
</svg>
